# xmcd
#
# Track frame offsets: 
#        150
#        52160
#        76417
#        116129
#        164664
#
# Disc length: 2939 seconds
#
# Revision: 0
# Processed by: cddbd v1.4PL0 Copyright (c) Steve Scherf et al.
# Submitted via: ExactAudioCopy v0.95a3
#
DISCID=430b7905
DTITLE=The Lee Sankey Group - She's Not Alone EP
DYEAR=1900
DGENRE=Blues
TTITLE0=She's Not Alone
TTITLE1=Bedside Note
TTITLE2=He Doesn't Live Like The Others (Live)
TTITLE3=Sometimes (Live)
TTITLE4=Country Blues Intro And Stone In My Shoe (Live)
EXTD=
EXTT0=
EXTT1=
EXTT2=
EXTT3=
EXTT4=
PLAYORDER=
